<svg width="263" height="79" viewBox="0 0 263 79" fill="none" xmlns="http://www.w3.org/2000/svg">
<path d="M44.4704 50.54C40.5464 50.54 37.0724 50.36 34.0484 50C31.0244 49.64 28.8464 49.28 27.5144 48.92V47.3L26.4344 40.442C27.1184 41.018 28.2524 41.63 29.8364 42.278C31.4204 42.926 33.4544 43.484 35.9384 43.952C38.4224 44.384 41.3024 44.6 44.5784 44.6C46.5944 44.6 48.1424 44.474 49.2224 44.222C50.3024 43.934 51.0404 43.538 51.4364 43.034C51.8324 42.53 52.0304 41.936 52.0304 41.252C52.0304 40.388 51.7424 39.722 51.1664 39.254C50.5904 38.75 49.5464 38.336 48.0344 38.012C46.5584 37.688 44.4524 37.346 41.7164 36.986C38.4404 36.554 35.7044 35.96 33.5084 35.204C31.3124 34.448 29.6744 33.386 28.5944 32.018C27.5144 30.614 26.9744 28.76 26.9744 26.456C26.9744 24.584 27.4604 22.946 28.4324 21.542C29.4044 20.138 30.9704 19.04 33.1304 18.248C35.2904 17.456 38.1524 17.06 41.7164 17.06C45.4604 17.06 48.6644 17.24 51.3284 17.6C53.9924 17.96 55.8284 18.32 56.8364 18.68V20.3L58.4564 26.24C57.5564 25.772 56.2604 25.286 54.5684 24.782C52.8764 24.278 50.9144 23.864 48.6824 23.54C46.4504 23.18 44.0384 23 41.4464 23C39.8264 23 38.5664 23.144 37.6664 23.432C36.7664 23.684 36.1184 24.062 35.7224 24.566C35.3624 25.034 35.1824 25.628 35.1824 26.348C35.1824 27.212 35.5064 27.914 36.1544 28.454C36.8384 28.958 37.9364 29.372 39.4484 29.696C40.9604 30.02 42.9944 30.326 45.5504 30.614C49.4744 31.046 52.4984 31.694 54.6224 32.558C56.7464 33.422 58.2044 34.538 58.9964 35.906C59.8244 37.238 60.2384 38.858 60.2384 40.766C60.2384 42.422 59.9324 43.88 59.3204 45.14C58.7084 46.364 57.7544 47.372 56.4584 48.164C55.1984 48.956 53.5604 49.55 51.5444 49.946C49.5644 50.342 47.2064 50.54 44.4704 50.54ZM78.7094 50.54C75.8654 50.54 73.4894 50.252 71.5814 49.676C69.7094 49.064 68.2154 48.2 67.0994 47.084C65.9834 45.932 65.1914 44.546 64.7234 42.926C64.2554 41.306 64.0214 39.47 64.0214 37.418C64.0214 33.35 65.1554 30.128 67.4234 27.752C69.6914 25.376 73.1654 24.188 77.8454 24.188C80.5814 24.188 82.7954 24.566 84.4874 25.322C86.2154 26.078 87.5294 27.086 88.4294 28.346C89.3294 29.606 89.9414 31.01 90.2654 32.558C90.6254 34.07 90.8054 35.6 90.8054 37.148V39.686C90.8054 39.578 90.3014 39.47 89.2934 39.362C88.3214 39.218 86.6654 39.146 84.3254 39.146H71.7974C71.7974 41.126 72.3914 42.62 73.5794 43.628C74.8034 44.6 76.7834 45.086 79.5194 45.086C81.8234 45.086 83.8754 44.816 85.6754 44.276C87.5114 43.7 88.8434 43.16 89.6714 42.656V44.276L90.2114 48.38C89.5274 48.848 88.2134 49.334 86.2694 49.838C84.3254 50.306 81.8054 50.54 78.7094 50.54ZM73.7954 34.502H83.1374C83.1374 33.71 82.9574 32.936 82.5974 32.18C82.2734 31.424 81.7334 30.812 80.9774 30.344C80.2214 29.84 79.1774 29.588 77.8454 29.588C76.5134 29.588 75.4334 29.786 74.6054 30.182C73.8134 30.578 73.2194 31.064 72.8234 31.64C72.4634 32.216 72.2834 32.81 72.2834 33.422C72.2834 33.782 72.3914 34.052 72.6074 34.232C72.8234 34.412 73.2194 34.502 73.7954 34.502ZM106.001 50.54C103.517 50.54 101.717 50.018 100.601 48.974C99.4853 47.894 98.9273 46.148 98.9273 43.736V30.128H94.0673V24.728C95.7233 24.728 97.0193 24.53 97.9553 24.134C98.8913 23.702 99.5573 22.964 99.9533 21.92C100.349 20.876 100.547 19.418 100.547 17.546H106.595V24.728H115.829C115.577 25.448 115.325 26.348 115.073 27.428C114.857 28.472 114.749 29.372 114.749 30.128H106.595V40.766C106.595 42.422 106.721 43.556 106.973 44.168C107.225 44.78 107.819 45.086 108.755 45.086C109.367 45.086 110.033 44.87 110.753 44.438C111.509 44.006 112.229 43.484 112.913 42.872C113.633 42.224 114.227 41.612 114.695 41.036V42.71L115.235 47.948C114.803 48.308 114.155 48.704 113.291 49.136C112.427 49.532 111.365 49.856 110.105 50.108C108.881 50.396 107.513 50.54 106.001 50.54ZM129.363 50.54C126.879 50.54 125.079 50.018 123.963 48.974C122.847 47.894 122.289 46.148 122.289 43.736V30.128H117.429V24.728C119.085 24.728 120.381 24.53 121.317 24.134C122.253 23.702 122.919 22.964 123.315 21.92C123.711 20.876 123.909 19.418 123.909 17.546H129.957V24.728H139.191C138.939 25.448 138.687 26.348 138.435 27.428C138.219 28.472 138.111 29.372 138.111 30.128H129.957V40.766C129.957 42.422 130.083 43.556 130.335 44.168C130.587 44.78 131.181 45.086 132.117 45.086C132.729 45.086 133.395 44.87 134.115 44.438C134.871 44.006 135.591 43.484 136.275 42.872C136.995 42.224 137.589 41.612 138.057 41.036V42.71L138.597 47.948C138.165 48.308 137.517 48.704 136.653 49.136C135.789 49.532 134.727 49.856 133.467 50.108C132.243 50.396 130.875 50.54 129.363 50.54ZM142.086 50C142.338 50 142.59 49.748 142.842 49.244C143.094 48.74 143.22 47.912 143.22 46.76V27.968C143.22 26.816 143.094 25.988 142.842 25.484C142.626 24.98 142.392 24.728 142.14 24.728H150.888V46.76C150.888 47.912 150.996 48.74 151.212 49.244C151.464 49.748 151.716 50 151.968 50H142.086ZM146.46 20.624C145.128 20.624 144.066 20.264 143.274 19.544C142.482 18.824 142.086 17.834 142.086 16.574C142.086 15.314 142.464 14.324 143.22 13.604C144.012 12.884 145.092 12.524 146.46 12.524C147.828 12.524 148.89 12.884 149.646 13.604C150.438 14.324 150.834 15.314 150.834 16.574C150.834 17.834 150.438 18.824 149.646 19.544C148.89 20.264 147.828 20.624 146.46 20.624ZM156.852 50C157.104 50 157.338 49.748 157.554 49.244C157.806 48.74 157.932 47.912 157.932 46.76V28.508C157.932 27.356 157.806 26.546 157.554 26.078C157.338 25.574 157.104 25.304 156.852 25.268C158.436 25.268 160.056 25.16 161.712 24.944C163.368 24.692 164.664 24.44 165.6 24.188V27.482L165.492 28.184L165.6 28.292C165.708 28.04 166.05 27.59 166.626 26.942C167.202 26.294 168.03 25.682 169.11 25.106C170.19 24.494 171.522 24.188 173.106 24.188C176.454 24.188 179.01 25.142 180.774 27.05C182.574 28.958 183.474 31.946 183.474 36.014V46.76C183.474 47.912 183.582 48.74 183.798 49.244C184.05 49.748 184.302 50 184.554 50H174.726C174.978 50 175.212 49.748 175.428 49.244C175.68 48.74 175.806 47.912 175.806 46.76V36.176C175.806 34.484 175.626 33.17 175.266 32.234C174.906 31.262 174.402 30.578 173.754 30.182C173.142 29.786 172.422 29.588 171.594 29.588C170.586 29.588 169.614 29.84 168.678 30.344C167.778 30.812 167.04 31.568 166.464 32.612C165.888 33.62 165.6 34.97 165.6 36.662V46.76C165.6 47.912 165.708 48.74 165.924 49.244C166.176 49.748 166.428 50 166.68 50H156.852ZM201.981 63.176C199.893 63.176 197.967 63.032 196.203 62.744C194.475 62.456 192.963 62.096 191.667 61.664C190.407 61.268 189.435 60.872 188.751 60.476L189.831 52.376V50.81C190.335 51.782 191.127 52.808 192.207 53.888C193.287 54.968 194.637 55.886 196.257 56.642C197.877 57.398 199.713 57.776 201.765 57.776C203.097 57.776 204.213 57.488 205.113 56.912C206.013 56.372 206.697 55.526 207.165 54.374C207.633 53.222 207.867 51.8 207.867 50.108V49.244L207.975 48.272L207.867 48.164C207.363 48.704 206.679 49.154 205.815 49.514C204.987 49.838 204.069 50.09 203.061 50.27C202.089 50.45 201.117 50.54 200.145 50.54C197.229 50.54 194.889 49.964 193.125 48.812C191.397 47.66 190.137 46.094 189.345 44.114C188.589 42.134 188.211 39.902 188.211 37.418C188.211 34.898 188.589 32.648 189.345 30.668C190.101 28.688 191.343 27.122 193.071 25.97C194.835 24.782 197.193 24.188 200.145 24.188C201.153 24.188 202.143 24.26 203.115 24.404C204.087 24.548 204.987 24.764 205.815 25.052C206.643 25.304 207.327 25.664 207.867 26.132L207.975 26.078L207.867 25.052V24.728H216.615C216.363 24.764 216.111 25.034 215.859 25.538C215.643 26.042 215.535 26.888 215.535 28.076V48.758C215.535 53.978 214.419 57.686 212.187 59.882C209.991 62.078 206.589 63.176 201.981 63.176ZM201.603 45.086C202.863 45.086 203.961 44.87 204.897 44.438C205.833 44.006 206.553 43.232 207.057 42.116C207.597 41 207.867 39.434 207.867 37.418C207.867 35.438 207.597 33.89 207.057 32.774C206.553 31.622 205.833 30.812 204.897 30.344C203.961 29.84 202.863 29.588 201.603 29.588C200.415 29.588 199.389 29.84 198.525 30.344C197.661 30.848 196.995 31.676 196.527 32.828C196.059 33.98 195.825 35.528 195.825 37.472C195.825 39.38 196.041 40.892 196.473 42.008C196.941 43.124 197.607 43.916 198.471 44.384C199.335 44.852 200.379 45.086 201.603 45.086ZM235.269 50.54C232.065 50.54 229.365 50.36 227.169 50C224.973 49.64 223.461 49.28 222.633 48.92V47.3L221.499 42.008C222.435 42.692 224.181 43.376 226.737 44.06C229.293 44.744 232.425 45.086 236.133 45.086C237.249 45.086 238.131 45.014 238.779 44.87C239.463 44.726 239.949 44.492 240.237 44.168C240.525 43.844 240.669 43.43 240.669 42.926C240.669 42.314 240.435 41.846 239.967 41.522C239.535 41.198 238.743 40.946 237.591 40.766C236.439 40.55 234.765 40.298 232.569 40.01C229.797 39.65 227.601 39.146 225.981 38.498C224.361 37.814 223.209 36.95 222.525 35.906C221.877 34.826 221.553 33.512 221.553 31.964C221.553 30.524 221.895 29.228 222.579 28.076C223.299 26.888 224.523 25.952 226.251 25.268C228.015 24.548 230.463 24.188 233.595 24.188C236.547 24.188 239.139 24.368 241.371 24.728C243.603 25.088 245.205 25.448 246.177 25.808V27.428L247.257 32.18C246.429 31.64 244.809 31.082 242.397 30.506C239.985 29.93 236.925 29.642 233.217 29.642C231.777 29.642 230.751 29.786 230.139 30.074C229.527 30.362 229.221 30.866 229.221 31.586C229.221 31.946 229.311 32.252 229.491 32.504C229.707 32.756 230.103 32.99 230.679 33.206C231.255 33.422 232.083 33.638 233.163 33.854C234.243 34.034 235.665 34.232 237.429 34.448C240.489 34.844 242.793 35.402 244.341 36.122C245.889 36.806 246.933 37.67 247.473 38.714C248.013 39.722 248.283 40.946 248.283 42.386C248.283 44.222 247.815 45.752 246.879 46.976C245.979 48.164 244.557 49.064 242.613 49.676C240.705 50.252 238.257 50.54 235.269 50.54Z" fill="#303131"/>
<path d="M-0.000152588 67L11.5469 78.547L23.0939 67L11.5469 55.453L-0.000152588 67ZM262.547 67V65L11.5469 65V67V69L262.547 69V67Z" fill="#F0EA6E"/>
</svg>
