<svg width="1440" height="1024" viewBox="0 0 1440 1024" fill="none" xmlns="http://www.w3.org/2000/svg">
<g clip-path="url(#clip0_23_76)">
<rect width="1440" height="1024" fill="#303131"/>
<path opacity="0.05" d="M-32.8452 827.508C-47.8533 816.025 -56.5724 800.858 -59.0023 782.006C-61.4323 763.154 -57.0806 745.933 -45.9472 730.344C-44.2308 728.101 -42.3893 725.953 -40.4227 723.901C-38.4561 721.848 -36.3645 719.892 -34.1478 718.031L93.4899 616.505C107.29 605.723 122.763 600.271 139.908 600.149C157.053 600.027 172.504 605.228 186.261 615.754L332.59 727.704C346.347 738.229 355.41 751.782 359.776 768.361C364.143 784.941 362.928 801.301 356.132 817.442L291.528 967.192C290.312 969.818 288.985 972.459 287.549 975.114C286.112 977.77 284.536 980.219 282.819 982.463C271.186 997.669 255.876 1006.41 236.889 1008.68C217.903 1010.95 200.781 1006.25 185.523 994.572C175.017 986.534 167.359 976.329 162.55 963.955C157.741 951.582 156.709 938.937 159.454 926.019L165.54 896.294C166.197 892.845 165.751 889.54 164.203 886.38C162.656 883.219 160.506 880.587 157.755 878.482L86.4661 823.942C83.7147 821.837 80.6115 820.451 77.1565 819.784C73.7016 819.116 70.3952 819.551 67.2374 821.087L40.1395 834.737C28.3899 840.765 15.9148 843.076 2.71415 841.671C-10.4864 840.266 -22.3396 835.545 -32.8452 827.508ZM-8.83378 798.455C-4.08121 802.091 1.18719 804.146 6.97144 804.619C12.7557 805.092 18.2694 803.976 23.5127 801.269L50.3245 787.993C59.9887 783.135 70.1165 781.3 80.708 782.488C91.2994 783.675 100.847 787.522 109.352 794.028L180.64 848.568C189.145 855.074 195.308 863.346 199.129 873.383C202.95 883.42 204.001 893.708 202.281 904.249L196.481 933.6C195.24 939.368 195.604 944.982 197.574 950.441C199.544 955.9 202.905 960.448 207.658 964.084C214.662 969.442 222.429 971.729 230.96 970.945C239.491 970.16 246.552 966.374 252.142 959.585C251.951 959.835 253.513 957.275 256.827 951.907L321.144 802.53C324.543 794.46 325.237 786.296 323.226 778.04C321.215 769.783 316.708 762.976 309.704 757.618L163.375 645.667C156.371 640.309 148.56 637.692 139.939 637.815C131.319 637.938 123.684 640.791 117.034 646.374L-10.3174 747.526C-11.9619 748.639 -13.9285 750.691 -16.2171 753.682C-21.5571 760.662 -23.4751 768.482 -21.9709 777.141C-20.4667 785.801 -16.0877 792.905 -8.83378 798.455ZM201.837 793.65C206.089 796.904 210.751 798.197 215.82 797.531C220.89 796.865 225.046 794.413 228.288 790.176C231.53 785.938 232.81 781.285 232.126 776.218C231.443 771.15 228.975 766.99 224.723 763.737C220.471 760.483 215.81 759.19 210.74 759.856C205.67 760.522 201.514 762.974 198.272 767.211C195.03 771.449 193.75 776.102 194.434 781.169C195.117 786.237 197.585 790.397 201.837 793.65ZM254.739 786.701C258.992 789.954 263.653 791.248 268.722 790.582C273.792 789.916 277.948 787.464 281.19 783.226C284.432 778.988 285.712 774.335 285.029 769.268C284.345 764.2 281.877 760.04 277.625 756.787C273.373 753.534 268.712 752.24 263.642 752.906C258.572 753.572 254.416 756.024 251.174 760.262C247.932 764.499 246.653 769.152 247.336 774.22C248.019 779.287 250.487 783.447 254.739 786.701ZM208.968 846.528C213.22 849.782 217.881 851.075 222.951 850.409C228.02 849.743 232.176 847.291 235.419 843.054C238.661 838.816 239.94 834.163 239.257 829.096C238.573 824.028 236.106 819.868 231.853 816.615C227.601 813.361 222.94 812.068 217.87 812.734C212.8 813.4 208.645 815.852 205.402 820.089C202.16 824.327 200.881 828.98 201.564 834.047C202.247 839.115 204.715 843.275 208.968 846.528ZM261.87 839.579C266.122 842.832 270.783 844.126 275.853 843.46C280.922 842.794 285.078 840.342 288.321 836.104C291.563 831.866 292.842 827.213 292.159 822.146C291.476 817.078 289.008 812.918 284.755 809.665C280.503 806.412 275.842 805.118 270.772 805.784C265.703 806.45 261.547 808.902 258.304 813.14C255.062 817.377 253.783 822.03 254.466 827.098C255.149 832.165 257.617 836.325 261.87 839.579ZM109.632 758.675C112.884 761.163 116.384 762.161 120.131 761.669C123.878 761.176 126.991 759.31 129.471 756.069L140.914 741.112L155.922 752.594C159.173 755.082 162.673 756.08 166.42 755.588C170.167 755.095 173.281 753.229 175.76 749.988C178.239 746.748 179.226 743.254 178.721 739.509C178.216 735.763 176.338 732.647 173.086 730.159L158.078 718.677L169.521 703.72C172 700.479 172.987 696.986 172.482 693.241C171.977 689.495 170.099 686.379 166.847 683.891C163.595 681.403 160.096 680.405 156.349 680.897C152.601 681.39 149.488 683.256 147.009 686.497L135.566 701.454L120.558 689.972C117.306 687.484 113.806 686.486 110.059 686.978C106.312 687.471 103.199 689.337 100.719 692.578C98.2401 695.819 97.253 699.312 97.758 703.057C98.2631 706.803 100.142 709.919 103.393 712.407L118.401 723.889L106.958 738.846C104.479 742.087 103.492 745.58 103.997 749.325C104.502 753.071 106.381 756.188 109.632 758.675Z" fill="#F0EA6E"/>
</g>
<defs>
<clipPath id="clip0_23_76">
<rect width="1440" height="1024" fill="white"/>
</clipPath>
</defs>
</svg>
